# xmcd
#
# Track frame offsets: 
#        150
#        12952
#        22818
#        46699
#        58247
#        72458
#        92348
#        100057
#        110824
#        121886
#        129471
#        142697
#        152161
#        165395
#        188543
#        203389
#        213412
#        222092
#        241015
#        256452
#
# Disc length: 3544 seconds
#
# Revision: 0
# Processed by: cddbd v1.5.2PL0 Copyright (c) Steve Scherf et al.
# Submitted via: ExactAudioCopy v0.99pb5
#
DISCID=000dd614
DTITLE=Андрей Веренок - Как только ляжет первый снег...
DYEAR=2007
DGENRE=Folklore
TTITLE0=Магазины, кафетерии, салоны...
TTITLE1=Мне не крутить романа с иностранкой...
TTITLE2=Перемен не стоит ждать...
TTITLE3=Я цыганку прошу...
TTITLE4=Семечки
TTITLE5=А я родился на Калининском...
TTITLE6=Ах, осень золотая...
TTITLE7=Вот и кончилась зима...
TTITLE8=В глубине души...
TTITLE9=Соловьи
TTITLE10=В городе Коломне
TTITLE11=Кругом вода талая...
TTITLE12=Перед отъездом в Кимры
TTITLE13=Прости, Остоженка!
TTITLE14=Ты всю ночь пила вино...
TTITLE15=Лишь туман рассеялся...
TTITLE16=Неприятности одни...
TTITLE17=Я говорю... Ты говоришь...
TTITLE18=Снова шорохи по лесам
TTITLE19=Как только ляжет первый снег...
EXTD=
EXTT0=
EXTT1=
EXTT2=
EXTT3=
EXTT4=
EXTT5=
EXTT6=
EXTT7=
EXTT8=
EXTT9=
EXTT10=
EXTT11=
EXTT12=
EXTT13=
EXTT14=
EXTT15=
EXTT16=
EXTT17=
EXTT18=
EXTT19=
PLAYORDER=
